# xmcd
#
# Track frame offsets:
#	150
#	13426
#	25652
#	38853
#	59479
#	78155
#	92481
#	104782
#	119408
#	135009
#
# Disc length: 2141 seconds
#
# Revision: 0
# Processed by: cddbd v1.5.2PL0 Copyright (c) Steve Scherf et al.
# Submitted via: audiograbber 1.83.01
#
DISCID=7b085b0a
DTITLE=Hank Williams, Jr. - Five-O-Five
DYEAR=1985
DGENRE=Country
TTITLE0=I'm For Love
TTITLE1=I Really Like Girls
TTITLE2=The Nashville Scene
TTITLE3=Ain't Misbehavin'
TTITLE4=Something To Believe In
TTITLE5=Lawyers, Guns And Money
TTITLE6=This Ain't Dallas
TTITLE7=I've Been Around
TTITLE8=New Orleans
TTITLE9=Outlaw's Reward
EXTD=
EXTT0=
EXTT1=
EXTT2=
EXTT3=
EXTT4=
EXTT5=
EXTT6=
EXTT7=
EXTT8=
EXTT9=
PLAYORDER=
